<?xml version="1.0" encoding="utf-8"?>
<!-- Generator: Adobe Illustrator 23.0.3, SVG Export Plug-In . SVG Version: 6.00 Build 0)  -->
<svg version="1.1" id="Layer_1" xmlns="http://www.w3.org/2000/svg" xmlns:xlink="http://www.w3.org/1999/xlink" x="0px" y="0px"
	 viewBox="0 0 149.2 61.8" style="enable-background:new 0 0 149.2 61.8;" xml:space="preserve">
<style type="text/css">
	.st0{fill:#E30613;}
	.st1{fill:#706F6F;}
</style>
<g>
	<path d="M48.3,28.6c0,0,4.5-0.6,4.6-11.9C53.1,3.4,47.9,4,47.9,4H40v44.9h2.1l0.1-20h2.5c2.7-0.1,4.1,7.6,4.9,10.7
		c0.8,3.1,2.1,9.4,2.1,9.4h2.6c0,0-1.7-7.3-3-13C50,30.3,48.3,28.6,48.3,28.6 M45.2,27.3c-2.8,0.1-3,0-3,0V5.6h4
		c0,0,4.7-1.4,4.7,9.6C50.9,26,48,27.3,45.2,27.3"/>
	<path class="st0" d="M25,16.7C24.7,4.2,21.6,4,19.9,4C18,3.9,12,4,12,4v44.9h2.1l0.1-19.7h2.5C19.4,29,25.2,29.2,25,16.7
		 M17.2,27.3c-2.8,0.2-3,0-3,0l0.1-22l4,0c0,0,5.2-0.7,5.2,9.9C23.3,26.1,19.6,27.2,17.2,27.3"/>
	<rect x="67.5" y="4" width="2.8" height="44.9"/>
	<polygon points="95.3,44.3 83.9,4 80.2,4 80.3,48.9 82.7,48.9 82.4,8.4 94,48.9 96.3,48.9 107.8,8.5 107.7,48.9 110.2,48.9 
		110.2,4 106,4 	"/>
	<polygon points="127.6,46.8 127.6,27.1 137.1,27.1 137.1,24.9 127.5,24.9 127.6,6.3 138.1,6.3 138.1,4 125.2,4 125.2,49 138.4,49 
		138.4,46.8 	"/>
</g>
<g>
	<path class="st1" d="M14.1,56.1c0,0.5-0.2,0.8-0.5,1.1c-0.3,0.3-0.7,0.4-1.2,0.4c-0.2,0-0.4,0-0.6-0.1c-0.2-0.1-0.4-0.2-0.5-0.3
		c-0.1-0.1-0.3-0.3-0.3-0.5c-0.1-0.2-0.1-0.4-0.1-0.6h0.7c0,0.2,0.1,0.5,0.3,0.6c0.2,0.2,0.4,0.3,0.7,0.3c0.2,0,0.5-0.1,0.6-0.2
		c0.2-0.2,0.3-0.3,0.3-0.6c0-0.3-0.1-0.5-0.3-0.6c-0.2-0.1-0.4-0.2-0.7-0.3c-0.4-0.1-0.7-0.2-0.9-0.4c-0.3-0.2-0.4-0.5-0.4-0.9
		c0-0.4,0.1-0.7,0.4-1c0.3-0.3,0.6-0.4,1-0.4c0.4,0,0.7,0.1,1,0.4c0.3,0.3,0.4,0.6,0.4,0.9h-0.7c0-0.2-0.1-0.4-0.2-0.5
		c-0.2-0.1-0.3-0.2-0.6-0.2c-0.2,0-0.4,0.1-0.5,0.2c-0.1,0.1-0.2,0.3-0.2,0.5c0,0.3,0.1,0.5,0.3,0.5c0.2,0.1,0.4,0.2,0.6,0.2
		c0.4,0.1,0.7,0.3,1,0.5C14,55.3,14.1,55.7,14.1,56.1"/>
	<path class="st1" d="M20.1,55.1c0,0.3-0.1,0.7-0.2,1c-0.1,0.3-0.3,0.6-0.6,0.8c-0.2,0.2-0.5,0.4-0.8,0.6c-0.3,0.1-0.7,0.2-1,0.2
		c-0.4,0-0.7-0.1-1-0.2c-0.3-0.1-0.6-0.3-0.9-0.5c-0.2-0.2-0.4-0.5-0.6-0.8c-0.1-0.3-0.2-0.6-0.2-1c0-0.3,0.1-0.7,0.2-1
		c0.1-0.3,0.3-0.6,0.6-0.8c0.2-0.2,0.5-0.4,0.9-0.5c0.3-0.1,0.7-0.2,1.1-0.2c0.3,0,0.7,0.1,1,0.2c0.3,0.1,0.6,0.3,0.8,0.5
		c0.2,0.2,0.4,0.5,0.6,0.8C20,54.4,20.1,54.7,20.1,55.1 M19.4,55.1c0-0.2,0-0.5-0.2-0.7c-0.1-0.2-0.2-0.4-0.4-0.6
		c-0.2-0.2-0.4-0.3-0.6-0.4c-0.2-0.1-0.5-0.1-0.8-0.1c-0.3,0-0.5,0-0.8,0.1c-0.2,0.1-0.4,0.2-0.6,0.4c-0.2,0.2-0.3,0.4-0.4,0.6
		c-0.1,0.2-0.2,0.5-0.2,0.7c0,0.3,0.1,0.5,0.2,0.7c0.1,0.2,0.2,0.4,0.4,0.6c0.2,0.2,0.4,0.3,0.6,0.4c0.2,0.1,0.5,0.1,0.8,0.1
		c0.3,0,0.5-0.1,0.8-0.1c0.2-0.1,0.4-0.2,0.6-0.4c0.2-0.2,0.3-0.4,0.4-0.6C19.3,55.6,19.4,55.3,19.4,55.1"/>
	<rect x="21" y="50.3" class="st1" width="0.7" height="7.2"/>
	<path class="st1" d="M26.6,57.5v-0.8c-0.2,0.3-0.4,0.5-0.7,0.7c-0.3,0.1-0.6,0.2-1,0.2c-0.1,0-0.3,0-0.6-0.1
		c-0.2,0-0.5-0.1-0.7-0.3c-0.2-0.2-0.4-0.4-0.6-0.7c-0.2-0.3-0.3-0.7-0.3-1.2v-2.7h0.7v2.7c0,0.4,0.1,0.8,0.4,1.1
		c0.3,0.3,0.7,0.5,1.1,0.5c0.5,0,0.9-0.2,1.1-0.5c0.3-0.3,0.4-0.7,0.4-1.1v-2.7h0.7v4.8H26.6z"/>
	<polygon class="st1" points="29.7,53.3 29.7,57.5 29,57.5 29,53.3 27.9,53.3 27.9,52.7 29,52.7 29,51 29.7,51 29.7,52.7 30.9,52.7 
		30.9,53.3 	"/>
	<path class="st1" d="M31.7,51h0.7v1.1h-0.7V51z M31.7,52.7h0.7v4.8h-0.7V52.7z"/>
	<path class="st1" d="M38.8,55.1c0,0.3-0.1,0.7-0.2,1c-0.1,0.3-0.3,0.6-0.6,0.8c-0.2,0.2-0.5,0.4-0.8,0.6c-0.3,0.1-0.7,0.2-1,0.2
		c-0.4,0-0.7-0.1-1-0.2c-0.3-0.1-0.6-0.3-0.9-0.5c-0.2-0.2-0.4-0.5-0.6-0.8c-0.1-0.3-0.2-0.6-0.2-1c0-0.3,0.1-0.7,0.2-1
		c0.1-0.3,0.3-0.6,0.6-0.8c0.2-0.2,0.5-0.4,0.9-0.5c0.3-0.1,0.7-0.2,1-0.2c0.3,0,0.7,0.1,1,0.2c0.3,0.1,0.6,0.3,0.8,0.5
		c0.2,0.2,0.4,0.5,0.6,0.8C38.8,54.4,38.8,54.7,38.8,55.1 M38.1,55.1c0-0.2-0.1-0.5-0.2-0.7c-0.1-0.2-0.2-0.4-0.4-0.6
		c-0.2-0.2-0.4-0.3-0.6-0.4c-0.2-0.1-0.5-0.1-0.8-0.1c-0.3,0-0.5,0-0.8,0.1c-0.2,0.1-0.4,0.2-0.6,0.4c-0.2,0.2-0.3,0.4-0.4,0.6
		c-0.1,0.2-0.1,0.5-0.1,0.7c0,0.3,0.1,0.5,0.2,0.7c0.1,0.2,0.2,0.4,0.4,0.6c0.2,0.2,0.4,0.3,0.6,0.4c0.2,0.1,0.5,0.1,0.8,0.1
		c0.3,0,0.5-0.1,0.8-0.1c0.2-0.1,0.4-0.2,0.6-0.4c0.2-0.2,0.3-0.4,0.4-0.6C38.1,55.6,38.1,55.3,38.1,55.1"/>
	<path class="st1" d="M43.6,57.5v-2.7c0-0.5-0.2-0.8-0.5-1.1c-0.3-0.3-0.7-0.4-1.2-0.4c-0.5,0-0.8,0.1-1.1,0.4
		c-0.3,0.3-0.4,0.6-0.4,1v2.8h-0.7v-4.8h0.7v0.7c0.4-0.5,0.9-0.8,1.6-0.8c0.3,0,0.6,0.1,0.9,0.1c0.3,0.1,0.5,0.2,0.7,0.4
		c0.2,0.2,0.4,0.4,0.5,0.7c0.1,0.3,0.2,0.6,0.2,0.9v2.7H43.6z"/>
	<path class="st1" d="M53.2,57.5v-0.9c-0.2,0.3-0.5,0.6-0.8,0.8c-0.4,0.2-0.7,0.3-1.1,0.3c-0.4,0-0.8-0.1-1.1-0.2
		c-0.3-0.1-0.6-0.3-0.9-0.6c-0.2-0.2-0.4-0.5-0.6-0.8c-0.1-0.3-0.2-0.6-0.2-1c0-0.4,0.1-0.8,0.3-1.1c0.2-0.3,0.4-0.6,0.7-0.8
		c0.3-0.2,0.6-0.3,0.9-0.4c0.3-0.1,0.6-0.1,0.8-0.1c0.4,0,0.8,0.1,1.1,0.3c0.4,0.2,0.6,0.4,0.8,0.8v-0.9h0.6v4.8H53.2z M53.2,55.1
		c0-0.5-0.2-1-0.6-1.4c-0.4-0.4-0.9-0.5-1.4-0.5c-0.3,0-0.6,0.1-0.8,0.1c-0.2,0.1-0.5,0.2-0.7,0.4c-0.2,0.2-0.3,0.4-0.4,0.6
		c-0.1,0.2-0.2,0.5-0.2,0.7c0,0.3,0.1,0.5,0.2,0.7c0.1,0.2,0.3,0.4,0.5,0.6c0.2,0.2,0.4,0.3,0.7,0.4c0.2,0.1,0.5,0.1,0.8,0.1
		c0.3,0,0.5-0.1,0.7-0.1c0.2-0.1,0.5-0.2,0.6-0.4c0.2-0.2,0.3-0.4,0.4-0.6C53.2,55.6,53.2,55.4,53.2,55.1"/>
	<path class="st1" d="M58.8,57.5v-2.7c0-0.5-0.2-0.8-0.5-1.1c-0.3-0.3-0.7-0.4-1.2-0.4c-0.5,0-0.8,0.1-1.1,0.4
		c-0.3,0.3-0.4,0.6-0.4,1v2.8H55v-4.8h0.7v0.7c0.4-0.5,0.9-0.8,1.6-0.8c0.3,0,0.6,0.1,0.9,0.1c0.3,0.1,0.5,0.2,0.7,0.4
		c0.2,0.2,0.4,0.4,0.5,0.7c0.1,0.3,0.2,0.6,0.2,0.9v2.7H58.8z"/>
	<path class="st1" d="M65.2,57.5v-0.9c-0.5,0.7-1.2,1-2,1c-0.3,0-0.5-0.1-0.8-0.1c-0.3-0.1-0.6-0.2-0.9-0.4
		c-0.3-0.2-0.5-0.5-0.7-0.8c-0.2-0.3-0.3-0.7-0.3-1.2c0-0.3,0.1-0.7,0.2-1c0.1-0.3,0.3-0.6,0.6-0.8c0.2-0.2,0.5-0.4,0.9-0.5
		c0.3-0.1,0.7-0.2,1-0.2c0.4,0,0.8,0.1,1.1,0.2c0.4,0.2,0.6,0.4,0.9,0.7v-3.2h0.7v7.2H65.2z M65.2,55.1c0-0.3-0.1-0.5-0.2-0.7
		c-0.1-0.2-0.3-0.4-0.4-0.6c-0.2-0.2-0.4-0.3-0.7-0.4c-0.2-0.1-0.5-0.1-0.8-0.1c-0.3,0-0.5,0.1-0.8,0.1c-0.2,0.1-0.5,0.2-0.6,0.4
		c-0.2,0.2-0.3,0.4-0.4,0.6c-0.1,0.2-0.2,0.5-0.2,0.7c0,0.3,0.1,0.5,0.2,0.7c0.1,0.2,0.2,0.4,0.4,0.6c0.2,0.2,0.4,0.3,0.6,0.4
		c0.2,0.1,0.5,0.1,0.8,0.1c0.3,0,0.5-0.1,0.8-0.1c0.2-0.1,0.5-0.2,0.6-0.4c0.2-0.2,0.3-0.4,0.4-0.6C65.1,55.6,65.2,55.4,65.2,55.1"
		/>
	<path class="st1" d="M74.3,56.1c0,0.5-0.2,0.8-0.5,1.1c-0.3,0.3-0.7,0.4-1.2,0.4c-0.2,0-0.4,0-0.6-0.1c-0.2-0.1-0.4-0.2-0.5-0.3
		c-0.1-0.1-0.3-0.3-0.3-0.5c-0.1-0.2-0.1-0.4-0.1-0.6h0.7c0,0.2,0.1,0.5,0.3,0.6c0.2,0.2,0.4,0.3,0.7,0.3c0.2,0,0.5-0.1,0.6-0.2
		c0.2-0.2,0.3-0.3,0.3-0.6c0-0.3-0.1-0.5-0.3-0.6c-0.2-0.1-0.4-0.2-0.7-0.3c-0.4-0.1-0.7-0.2-0.9-0.4c-0.3-0.2-0.4-0.5-0.4-0.9
		c0-0.4,0.1-0.7,0.4-1c0.3-0.3,0.6-0.4,1-0.4c0.4,0,0.7,0.1,1,0.4c0.3,0.3,0.4,0.6,0.4,0.9h-0.7c0-0.2-0.1-0.4-0.2-0.5
		c-0.2-0.1-0.3-0.2-0.6-0.2c-0.2,0-0.4,0.1-0.5,0.2C72,53.6,72,53.7,72,53.9c0,0.3,0.1,0.5,0.3,0.5c0.2,0.1,0.4,0.2,0.6,0.2
		c0.4,0.1,0.7,0.3,1,0.5C74.1,55.3,74.3,55.7,74.3,56.1"/>
	<path class="st1" d="M75.6,55.3c0,0.2,0.1,0.4,0.2,0.7c0.1,0.2,0.3,0.4,0.4,0.5c0.2,0.1,0.4,0.3,0.6,0.4c0.2,0.1,0.5,0.1,0.7,0.1
		c0.4,0,0.7-0.1,1-0.3c0.3-0.2,0.6-0.4,0.7-0.8H80c-0.1,0.2-0.2,0.5-0.4,0.7c-0.2,0.2-0.4,0.4-0.6,0.5c-0.2,0.1-0.5,0.3-0.7,0.3
		c-0.3,0.1-0.5,0.1-0.8,0.1c-0.4,0-0.7-0.1-1-0.2c-0.3-0.1-0.6-0.3-0.9-0.5c-0.2-0.2-0.4-0.5-0.6-0.8c-0.1-0.3-0.2-0.6-0.2-1
		c0-0.3,0.1-0.7,0.2-1c0.1-0.3,0.3-0.6,0.6-0.8c0.2-0.2,0.5-0.4,0.8-0.5c0.3-0.1,0.7-0.2,1-0.2c0.4,0,0.7,0.1,1.1,0.2
		c0.3,0.1,0.6,0.3,0.8,0.6c0.2,0.2,0.4,0.5,0.5,0.9c0.1,0.3,0.2,0.7,0.2,1.1H75.6z M79.5,54.8c-0.1-0.4-0.3-0.8-0.7-1.1
		c-0.4-0.3-0.8-0.4-1.3-0.4c-0.5,0-0.9,0.1-1.3,0.4c-0.4,0.3-0.6,0.7-0.7,1.1H79.5z"/>
	<path class="st1" d="M83.2,53.3c-0.5,0-0.9,0.2-1.1,0.4s-0.3,0.6-0.3,1.1v2.7h-0.7v-4.8h0.6v0.7c0.1-0.3,0.3-0.5,0.6-0.6
		c0.3-0.1,0.6-0.2,0.9-0.2V53.3z"/>
	<polygon class="st1" points="86.2,57.5 85.5,57.5 83.3,52.7 84.1,52.7 85.8,56.7 87.6,52.7 88.3,52.7 	"/>
	<path class="st1" d="M89.1,51h0.7v1.1h-0.7V51z M89.1,52.7h0.7v4.8h-0.7V52.7z"/>
	<path class="st1" d="M96.2,56.1c-0.2,0.5-0.6,0.8-1,1.1c-0.4,0.3-0.9,0.4-1.5,0.4c-0.4,0-0.7-0.1-1.1-0.2c-0.3-0.1-0.6-0.3-0.9-0.5
		c-0.3-0.2-0.5-0.5-0.6-0.8c-0.2-0.3-0.2-0.6-0.2-1c0-0.3,0.1-0.7,0.2-1c0.1-0.3,0.3-0.6,0.6-0.8c0.2-0.2,0.5-0.4,0.9-0.5
		c0.3-0.1,0.7-0.2,1-0.2c0.6,0,1.1,0.1,1.5,0.4c0.5,0.3,0.8,0.7,1,1.1h-0.8c-0.2-0.3-0.4-0.5-0.7-0.7c-0.3-0.2-0.6-0.3-1-0.3
		c-0.3,0-0.6,0-0.8,0.1c-0.2,0.1-0.5,0.2-0.7,0.4c-0.2,0.2-0.3,0.4-0.4,0.6c-0.1,0.2-0.2,0.5-0.2,0.7c0,0.3,0.1,0.5,0.2,0.8
		c0.1,0.2,0.3,0.4,0.5,0.6c0.2,0.2,0.4,0.3,0.7,0.4c0.2,0.1,0.5,0.1,0.8,0.1c0.7,0,1.3-0.3,1.7-0.9H96.2z"/>
	<path class="st1" d="M97.6,55.3c0,0.2,0.1,0.4,0.2,0.7c0.1,0.2,0.3,0.4,0.4,0.5c0.2,0.1,0.4,0.3,0.6,0.4c0.2,0.1,0.5,0.1,0.7,0.1
		c0.4,0,0.7-0.1,1-0.3c0.3-0.2,0.6-0.4,0.7-0.8h0.7c-0.1,0.2-0.2,0.5-0.4,0.7c-0.2,0.2-0.4,0.4-0.6,0.5c-0.2,0.1-0.5,0.3-0.7,0.3
		c-0.3,0.1-0.5,0.1-0.8,0.1c-0.4,0-0.7-0.1-1-0.2c-0.3-0.1-0.6-0.3-0.9-0.5c-0.2-0.2-0.4-0.5-0.6-0.8c-0.1-0.3-0.2-0.6-0.2-1
		c0-0.3,0.1-0.7,0.2-1c0.1-0.3,0.3-0.6,0.6-0.8c0.2-0.2,0.5-0.4,0.8-0.5c0.3-0.1,0.7-0.2,1-0.2c0.4,0,0.7,0.1,1.1,0.2
		c0.3,0.1,0.6,0.3,0.8,0.6c0.2,0.2,0.4,0.5,0.6,0.9c0.1,0.3,0.2,0.7,0.2,1.1H97.6z M101.5,54.8c-0.1-0.4-0.3-0.8-0.7-1.1
		c-0.4-0.3-0.8-0.4-1.3-0.4c-0.5,0-0.9,0.1-1.3,0.4c-0.4,0.3-0.6,0.7-0.7,1.1H101.5z"/>
	<path class="st1" d="M105.9,56.1c0,0.5-0.2,0.8-0.5,1.1c-0.3,0.3-0.7,0.4-1.2,0.4c-0.2,0-0.4,0-0.6-0.1c-0.2-0.1-0.4-0.2-0.5-0.3
		c-0.1-0.1-0.3-0.3-0.3-0.5c-0.1-0.2-0.1-0.4-0.1-0.6h0.7c0,0.2,0.1,0.5,0.3,0.6c0.2,0.2,0.4,0.3,0.7,0.3c0.2,0,0.5-0.1,0.6-0.2
		c0.2-0.2,0.3-0.3,0.3-0.6c0-0.3-0.1-0.5-0.3-0.6c-0.2-0.1-0.4-0.2-0.7-0.3c-0.4-0.1-0.7-0.2-0.9-0.4c-0.3-0.2-0.4-0.5-0.4-0.9
		c0-0.4,0.1-0.7,0.4-1c0.3-0.3,0.6-0.4,1-0.4c0.4,0,0.7,0.1,1,0.4c0.3,0.3,0.4,0.6,0.4,0.9H105c0-0.2-0.1-0.4-0.2-0.5
		c-0.2-0.1-0.3-0.2-0.6-0.2c-0.2,0-0.4,0.1-0.5,0.2c-0.1,0.1-0.2,0.3-0.2,0.5c0,0.3,0.1,0.5,0.3,0.5c0.2,0.1,0.4,0.2,0.6,0.2
		c0.4,0.1,0.7,0.3,1,0.5C105.7,55.3,105.9,55.7,105.9,56.1"/>
	<path class="st1" d="M115.9,56.1c-0.2,0.5-0.6,0.8-1,1.1c-0.4,0.3-0.9,0.4-1.5,0.4c-0.4,0-0.7-0.1-1.1-0.2
		c-0.3-0.1-0.6-0.3-0.9-0.5c-0.3-0.2-0.5-0.5-0.6-0.8c-0.2-0.3-0.2-0.6-0.2-1c0-0.3,0.1-0.7,0.2-1c0.1-0.3,0.3-0.6,0.6-0.8
		c0.3-0.2,0.5-0.4,0.9-0.5c0.3-0.1,0.7-0.2,1-0.2c0.6,0,1.1,0.1,1.5,0.4c0.5,0.3,0.8,0.7,1,1.1h-0.8c-0.2-0.3-0.4-0.5-0.7-0.7
		c-0.3-0.2-0.6-0.3-1-0.3c-0.3,0-0.6,0-0.8,0.1c-0.3,0.1-0.5,0.2-0.7,0.4c-0.2,0.2-0.3,0.4-0.4,0.6c-0.1,0.2-0.2,0.5-0.2,0.7
		c0,0.3,0.1,0.5,0.2,0.8c0.1,0.2,0.3,0.4,0.5,0.6c0.2,0.2,0.4,0.3,0.7,0.4c0.2,0.1,0.5,0.1,0.8,0.1c0.7,0,1.3-0.3,1.7-0.9H115.9z"/>
	<path class="st1" d="M121.9,55.1c0,0.3-0.1,0.7-0.2,1c-0.1,0.3-0.3,0.6-0.6,0.8c-0.2,0.2-0.5,0.4-0.8,0.6c-0.3,0.1-0.7,0.2-1,0.2
		c-0.4,0-0.7-0.1-1-0.2c-0.3-0.1-0.6-0.3-0.9-0.5c-0.2-0.2-0.4-0.5-0.6-0.8c-0.1-0.3-0.2-0.6-0.2-1c0-0.3,0.1-0.7,0.2-1
		c0.1-0.3,0.3-0.6,0.6-0.8c0.2-0.2,0.5-0.4,0.9-0.5c0.3-0.1,0.7-0.2,1-0.2c0.3,0,0.7,0.1,1,0.2c0.3,0.1,0.6,0.3,0.8,0.5
		c0.2,0.2,0.4,0.5,0.6,0.8C121.8,54.4,121.9,54.7,121.9,55.1 M121.2,55.1c0-0.2-0.1-0.5-0.2-0.7c-0.1-0.2-0.2-0.4-0.4-0.6
		c-0.2-0.2-0.4-0.3-0.6-0.4c-0.2-0.1-0.5-0.1-0.8-0.1c-0.3,0-0.5,0-0.8,0.1c-0.2,0.1-0.4,0.2-0.6,0.4c-0.2,0.2-0.3,0.4-0.4,0.6
		c-0.1,0.2-0.1,0.5-0.1,0.7c0,0.3,0.1,0.5,0.2,0.7c0.1,0.2,0.2,0.4,0.4,0.6c0.2,0.2,0.4,0.3,0.6,0.4c0.2,0.1,0.5,0.1,0.8,0.1
		c0.3,0,0.5-0.1,0.8-0.1c0.2-0.1,0.4-0.2,0.6-0.4c0.2-0.2,0.3-0.4,0.4-0.6C121.1,55.6,121.2,55.3,121.2,55.1"/>
	<rect x="123.2" y="56.4" class="st1" width="0.7" height="1.1"/>
	<polygon class="st1" points="126.4,58.1 125.7,58.1 126.5,56.4 127.2,56.4 	"/>
	<rect x="129.3" y="50.3" class="st1" width="0.7" height="7.2"/>
	<polygon class="st1" points="132.4,53.3 132.4,57.5 131.7,57.5 131.7,53.3 130.6,53.3 130.6,52.7 131.7,52.7 131.7,51 132.4,51 
		132.4,52.7 133.6,52.7 133.6,53.3 	"/>
	<path class="st1" d="M138.8,57.5v-0.9c-0.5,0.7-1.2,1-2,1c-0.2,0-0.5-0.1-0.8-0.1c-0.3-0.1-0.6-0.2-0.9-0.4
		c-0.3-0.2-0.5-0.5-0.7-0.8c-0.2-0.3-0.3-0.7-0.3-1.2c0-0.3,0.1-0.7,0.2-1c0.1-0.3,0.3-0.6,0.6-0.8c0.2-0.2,0.5-0.4,0.9-0.5
		c0.3-0.1,0.7-0.2,1-0.2c0.4,0,0.8,0.1,1.1,0.2c0.4,0.2,0.6,0.4,0.9,0.7v-3.2h0.7v7.2H138.8z M138.8,55.1c0-0.3-0.1-0.5-0.2-0.7
		c-0.1-0.2-0.3-0.4-0.4-0.6c-0.2-0.2-0.4-0.3-0.7-0.4c-0.2-0.1-0.5-0.1-0.8-0.1c-0.3,0-0.5,0.1-0.8,0.1c-0.2,0.1-0.5,0.2-0.6,0.4
		c-0.2,0.2-0.3,0.4-0.4,0.6c-0.1,0.2-0.2,0.5-0.2,0.7c0,0.3,0.1,0.5,0.2,0.7c0.1,0.2,0.3,0.4,0.4,0.6c0.2,0.2,0.4,0.3,0.6,0.4
		c0.2,0.1,0.5,0.1,0.8,0.1c0.3,0,0.5-0.1,0.8-0.1c0.2-0.1,0.5-0.2,0.6-0.4c0.2-0.2,0.3-0.4,0.4-0.6
		C138.7,55.6,138.8,55.4,138.8,55.1"/>
	<rect x="140.6" y="56.4" class="st1" width="0.7" height="1.1"/>
</g>
</svg>
